<?xml version="1.0" encoding="utf-8"?>
<!-- Generator: Adobe Illustrator 17.0.0, SVG Export Plug-In . SVG Version: 6.00 Build 0)  -->
<!DOCTYPE svg PUBLIC "-//W3C//DTD SVG 1.1//EN" "http://www.w3.org/Graphics/SVG/1.1/DTD/svg11.dtd">
<svg version="1.1" id="Layer_1" xmlns="http://www.w3.org/2000/svg" xmlns:xlink="http://www.w3.org/1999/xlink" x="0px" y="0px"
	 width="234.613px" height="124.324px" viewBox="0 0 234.613 124.324" enable-background="new 0 0 234.613 124.324"
	 xml:space="preserve">
<g id="logo-full">
	<g>
		<g>
			<path stroke="#FFFFFF" stroke-miterlimit="10" d="M113.62,114.1c0,1.687-1.367,3.054-3.054,3.054H6.987
				c-1.687,0-3.054-1.367-3.054-3.054V10.521c0-1.687,1.367-3.054,3.054-3.054h103.579c1.687,0,3.054,1.367,3.054,3.054V114.1z"/>
		</g>
	</g>
	<g>
		<g>
			<path fill="#FFFFFF" d="M62.952,40.471v8.736h-4.368v0.562l-0.562-0.562h-0.999l1.56,1.56v1.123l-2.683-2.683h-0.998l3.682,3.682
				v1.123l-4.306-4.368l-0.375,0.624l4.68,4.743v1.123l-5.117-5.179l-0.437,0.624l5.554,5.491v1.123l-5.928-5.928l-0.437,0.624
				l6.365,6.302v1.123l-6.802-6.739l-0.374,0.562l7.176,7.176v1.123l-7.613-7.613l-0.374,0.624l7.987,7.987v1.123l-8.424-8.424
				l-9.048,14.352l-8.861-13.978l-8.611,8.611v-1.56l8.05-7.987l-0.25-0.375l-7.8,7.863V61.5l7.239-7.239l-0.25-0.374l-6.989,7.051
				v-1.56l6.427-6.427l-0.25-0.312l-6.178,6.178v-1.56l5.554-5.616l-0.187-0.312l-5.366,5.366v-1.56l4.743-4.742l-0.187-0.375
				l-4.555,4.555v-1.56l3.931-3.931l-0.187-0.312l-3.744,3.682v-1.56l3.12-3.12l-0.187-0.312l-2.933,2.933v-1.186h-0.374
				l2.683-2.745l-0.187-0.312l-3.058,3.057h-1.56l3.994-3.994l-0.187-0.374l-4.368,4.368h-1.311v-0.249l5.054-5.054l-0.25-0.312
				l-4.805,4.805v-1.56l4.243-4.243l-0.25-0.312l-3.994,3.994v-1.56l3.432-3.37l-0.25-0.374l-3.182,3.182v-1.56l2.121-2.121h11.107
				l8.611,13.666l8.611-13.666H62.952z M20.832,40.471l-1.56,1.622v-1.56l0.062-0.062H20.832z M19.959,75.415l8.736,8.736h-1.123
				l-8.299-8.299v-0.437H19.959z M19.273,76.85l7.301,7.301H25.45l-6.178-6.178V76.85z M19.273,78.909l5.241,5.241h-1.123
				l-4.118-4.118V78.909z M19.273,81.031l3.12,3.12h-1.123l-1.997-1.997V81.031z M19.273,83.152l0.999,0.999h-0.999V83.152z
				 M22.081,75.415l8.736,8.736h-1.123l-8.736-8.736H22.081z M24.202,75.415l8.736,8.736h-1.123l-8.736-8.736h0.562v-1.248
				l8.736-8.736v1.56l-8.424,8.424H24.202z M32.376,58.504L23.64,67.24v-1.56l8.736-8.736V58.504z M23.64,67.802l8.736-8.736v1.56
				l-8.736,8.736V67.802z M23.64,69.924l8.736-8.736v1.56l-8.736,8.736V69.924z M23.64,72.045l8.736-8.736v1.56l-8.736,8.736V72.045
				z M26.324,75.415l8.736,8.736h-1.123l-8.736-8.736h-0.749l7.925-7.925v1.56l-6.365,6.365H26.324z M28.445,75.415l8.299,8.299
				v0.437h-0.686l-8.736-8.736h-0.749l5.803-5.803v1.56l-4.243,4.243H28.445z M30.504,75.415l6.24,6.24v1.061l-7.301-7.301h-0.749
				l3.682-3.682v1.56l-2.121,2.121H30.504z M32.626,75.415l4.118,4.119v1.123l-5.241-5.242h-0.687l1.56-1.56v1.56H32.626z
				 M34.748,75.415l1.997,1.997v1.123l-3.12-3.12H34.748z M35.746,75.415h0.998v0.999L35.746,75.415z M62.266,75.415h0.686v0.874
				l-4.368,4.368v0.499l4.368-4.368v1.56l-4.368,4.368v0.562l4.368-4.368v1.56l-3.682,3.682h-9.984l0.749-0.749l-0.187-0.125v-0.25
				l-1.123,1.123h-1.56l2.87-2.808l-0.187-0.187v-0.249l-3.245,3.245h-1.123v-0.437l4.555-4.493l-0.187-0.187v-0.25l-4.368,4.368
				v-1.56l4.555-4.493l-0.187-0.187v-0.187l-4.368,4.368v-1.56l4.118-4.119h0.874l-0.624-0.624v-1.123l1.747,1.81l0.063-0.063h0.874
				l-2.683-2.683v-1.123l3.869,3.869l0.062-0.063h0.874l-4.805-4.805v-1.123l5.99,5.99l0.062-0.063h0.874l-6.927-6.926v-1.123
				l8.112,8.112l0.062-0.063h1.56l-0.998,0.999v0.562l1.56-1.56h1.56l-3.12,3.12v0.562L62.266,75.415z M45.481,77.411l1.997-1.997
				h1.56l-3.557,3.557V77.411z M45.481,75.415h1.435l-1.435,1.435V75.415z M58.585,66.679l-8.736-8.736V56.82l8.736,8.736V66.679z
				 M49.848,58.941l8.736,8.736V68.8l-8.736-8.736V58.941z M49.848,61l8.736,8.736v1.123l-8.736-8.736V61z M49.848,63.122
				l8.736,8.736v1.123l-8.736-8.736V63.122z M49.848,65.244l8.736,8.736v1.123l-8.736-8.736V65.244z M51.034,76.039l-0.249-0.25
				l-0.499,0.437l0.312,0.312L51.034,76.039z M51.034,78.16l-0.249-0.312l-0.499,0.499l0.312,0.312L51.034,78.16z M51.034,80.282
				l-0.249-0.312l-0.499,0.499l0.312,0.312L51.034,80.282z M51.034,82.341l-0.249-0.25l-0.499,0.499l0.312,0.249L51.034,82.341z
				 M52.095,77.099l-0.25-0.312l-0.499,0.499l0.25,0.312L52.095,77.099z M52.095,79.221l-0.25-0.312l-0.499,0.499l0.25,0.312
				L52.095,79.221z M52.095,81.343l-0.25-0.312l-0.499,0.499l0.25,0.25L52.095,81.343z M52.095,83.402l-0.25-0.25l-0.499,0.499
				l0.25,0.25L52.095,83.402z M53.156,76.039l-0.25-0.25l-0.499,0.437l0.25,0.312L53.156,76.039z M53.156,78.16l-0.25-0.312
				l-0.499,0.499l0.25,0.312L53.156,78.16z M53.156,80.282l-0.25-0.312l-0.499,0.499l0.25,0.312L53.156,80.282z M53.156,82.341
				l-0.25-0.25l-0.499,0.499l0.25,0.249L53.156,82.341z M54.217,77.099l-0.25-0.312l-0.499,0.499l0.25,0.312L54.217,77.099z
				 M54.217,79.221l-0.25-0.312l-0.499,0.499l0.25,0.312L54.217,79.221z M54.217,81.343l-0.25-0.312l-0.499,0.499l0.25,0.25
				L54.217,81.343z M54.217,83.402l-0.25-0.25l-0.499,0.499l0.25,0.25L54.217,83.402z M55.277,76.039l-0.25-0.25l-0.499,0.437
				l0.25,0.312L55.277,76.039z M55.277,78.16l-0.25-0.312l-0.499,0.499l0.25,0.312L55.277,78.16z M55.277,80.282l-0.25-0.312
				l-0.499,0.499l0.25,0.312L55.277,80.282z M55.277,82.341l-0.25-0.25l-0.499,0.499l0.25,0.249L55.277,82.341z M56.338,77.099
				l-0.25-0.312l-0.499,0.499l0.25,0.312L56.338,77.099z M56.338,79.221l-0.25-0.312l-0.499,0.499l0.25,0.312L56.338,79.221z
				 M56.338,81.343l-0.25-0.312l-0.499,0.499l0.25,0.25L56.338,81.343z M56.338,83.402l-0.25-0.25l-0.499,0.499l0.25,0.25
				L56.338,83.402z M57.399,76.039l-0.25-0.25l-0.499,0.437l0.25,0.312L57.399,76.039z M57.399,78.16l-0.25-0.312l-0.499,0.499
				l0.25,0.312L57.399,78.16z M57.399,80.282l-0.25-0.312l-0.499,0.499l0.25,0.312L57.399,80.282z M57.399,82.341l-0.25-0.25
				l-0.499,0.499l0.25,0.249L57.399,82.341z M58.46,77.099l-0.312-0.312l-0.437,0.499l0.25,0.312L58.46,77.099z M58.46,79.221
				l-0.312-0.312l-0.437,0.499l0.25,0.312L58.46,79.221z M58.46,81.343l-0.312-0.312l-0.437,0.499l0.25,0.25L58.46,81.343z
				 M58.46,83.402l-0.312-0.25l-0.437,0.499l0.25,0.25L58.46,83.402z M59.832,84.151l3.12-3.12v1.56l-1.56,1.56H59.832z
				 M61.954,84.151l0.998-0.999v0.999H61.954z"/>
		</g>
		<g>
			<path fill="#FFFFFF" d="M91.042,64.12l7.238,7.238c-0.042,0.209-0.062,0.385-0.062,0.53c0,0.146-0.021,0.323-0.062,0.531
				l-7.863-7.925c-0.125,0.084-0.24,0.146-0.343,0.187c-0.104,0.042-0.218,0.084-0.343,0.125l8.424,8.424
				c-0.084,0.416-0.167,0.728-0.25,0.936l-9.11-9.173l-0.249,0.25c-0.084,0.042-0.146,0.062-0.187,0.062
				c-0.042,0-0.104,0.021-0.187,0.062l9.547,9.547c-0.084,0.125-0.136,0.26-0.156,0.406c-0.021,0.146-0.073,0.281-0.156,0.405
				L87.111,65.556c-0.125,0.042-0.24,0.073-0.343,0.094c-0.104,0.021-0.218,0.031-0.343,0.031l0.437-0.374l-0.312-0.312
				l-0.499,0.499l0.811,0.811c-0.583-0.29-1.123-0.437-1.622-0.437v-0.062H84.74h-8.736v1.061l-8.736-8.736v-1.123l8.736,8.736
				v-0.998l-8.736-8.736v-1.123l8.736,8.736v-0.998l-8.736-8.736v-1.123l8.736,8.736v-0.999l-8.736-8.736v-1.123l8.736,8.736V58.38
				l-8.736-8.736v-0.437h-0.25l0.25-0.249V48.52l0.187,0.25l0.499-0.499l-0.25-0.312l-1.248,1.248h-1.56l2.371-2.371v-0.437
				l0.187,0.249l0.499-0.499l-0.25-0.25l-3.37,3.307H62.9v-0.062l4.368-4.368v-0.437l0.187,0.187l0.499-0.499l-0.25-0.25
				L62.9,48.583v-1.56l4.368-4.368v-0.437l0.187,0.187l0.499-0.499l-0.25-0.25L62.9,46.461v-1.56l4.368-4.368v-0.062h10.047
				l-1.685,1.685l0.312,0.25l1.934-1.934h1.56l-3.806,3.806l0.312,0.25l4.056-4.056h1.56l-5.928,5.928l0.312,0.249l6.177-6.177h1.56
				l-8.05,7.987l0.312,0.312l8.299-8.299h0.499c0.166,0,0.332,0,0.499,0c0.166,0,0.333,0.021,0.499,0.062l-8.736,8.673h-0.998v0.749
				l-0.936-0.936l-0.125,0.187h-0.686l1.747,1.747v1.123l-2.995-3.058l-0.187,0.187h-0.687l3.869,3.869v1.123l-5.117-5.179
				L70.7,49.207h-0.624l5.928,5.928v1.123l-7.238-7.238l-0.187,0.187h-0.624l8.05,8.05v-0.187h8.736
				c0.582,0,1.164-0.125,1.747-0.374l-0.499,0.437h0.125l0.25,0.187l9.734-9.734c0.083,0.208,0.166,0.385,0.25,0.53
				c0.083,0.146,0.166,0.323,0.25,0.53l-8.798,8.798c0.125,0,0.27,0.042,0.437,0.125l8.486-8.486
				c0.083,0.209,0.145,0.406,0.187,0.593c0.041,0.187,0.103,0.385,0.187,0.593l-7.863,7.863l0.25,0.25l7.675-7.613
				c0.125,0.458,0.187,0.916,0.187,1.373l-6.427,6.427l0.375,0.187l6.115-6.115v0.499c0,0.209,0,0.396,0,0.562
				c0,0.167-0.021,0.333-0.062,0.499l-5.117,5.179c0.166,0.084,0.27,0.146,0.312,0.187l4.743-4.743
				c-0.042,0.333-0.104,0.666-0.187,0.999c-0.084,0.333-0.167,0.666-0.25,0.998l-3.432,3.432c0.041,0.042,0.072,0.062,0.094,0.062
				c0.02,0,0.052,0.021,0.094,0.063l0.125,0.125l2.808-2.808c-0.499,1.332-1.186,2.518-2.059,3.557l0.499,0.499
				c0.415,0.458,0.79,0.958,1.123,1.498c0.333,0.541,0.645,1.103,0.936,1.685l-3.12-3.12c-0.125,0.208-0.292,0.374-0.499,0.499
				l4.243,4.243l0.374,1.498l-5.179-5.179c-0.084,0.084-0.177,0.156-0.281,0.219c-0.104,0.062-0.198,0.135-0.281,0.218l5.928,5.928
				c0,0.208,0.01,0.406,0.031,0.593c0.021,0.187,0.031,0.385,0.031,0.593l-6.677-6.677L91.042,64.12z M66.769,40.471L62.9,44.339
				v-1.56l2.309-2.309H66.769z M64.647,40.471L62.9,42.218v-1.747H64.647z M84.74,75.415c0.29,0,0.499-0.02,0.624-0.062l6.677,6.677
				c-0.125,0.084-0.25,0.156-0.374,0.218c-0.125,0.062-0.25,0.135-0.374,0.218l-6.552-6.614v0.998l5.928,5.928
				c-0.333,0.167-0.603,0.292-0.811,0.374l-5.117-5.179v0.999l4.43,4.43c-0.25,0.084-0.541,0.167-0.874,0.25l-3.557-3.557v0.998
				l2.745,2.746l-0.936,0.187l-1.809-1.81v0.999l0.936,0.874c-0.209,0.042-0.521,0.062-0.936,0.062H62.9v-8.736h4.805l-0.437-0.437
				v-1.123l1.56,1.56h0.936l-2.496-2.496v-1.123l3.619,3.619h0.999l-4.618-4.618v-1.123l5.741,5.741h0.999l-6.739-6.739v-1.123
				l7.863,7.862H84.74z M76.004,68.925l-8.736-8.736v-1.061l8.736,8.736V68.925z M67.268,61.187l8.736,8.736v1.123l-8.736-8.736
				V61.187z M67.268,63.309l8.736,8.736v1.123l-8.736-8.736V63.309z M67.268,65.431l8.736,8.736v1.123l-8.736-8.736V65.431z
				 M68.266,41.095l0.25,0.25l0.499-0.499l-0.249-0.25L68.266,41.095z M68.266,43.216l0.25,0.25l0.499-0.499l-0.249-0.25
				L68.266,43.216z M68.266,45.338l0.25,0.25l0.499-0.499l-0.249-0.25L68.266,45.338z M68.266,47.397l0.25,0.312l0.499-0.499
				l-0.249-0.249L68.266,47.397z M69.327,42.156l0.249,0.25l0.499-0.499l-0.25-0.25L69.327,42.156z M69.327,44.277l0.249,0.25
				l0.499-0.499l-0.25-0.25L69.327,44.277z M69.327,46.399l0.249,0.249l0.499-0.499l-0.25-0.25L69.327,46.399z M69.327,48.458
				l0.249,0.312l0.499-0.499l-0.25-0.312L69.327,48.458z M70.388,41.095l0.25,0.25l0.499-0.499l-0.25-0.25L70.388,41.095z
				 M70.388,43.216l0.25,0.25l0.499-0.499l-0.25-0.25L70.388,43.216z M70.388,45.338l0.25,0.25l0.499-0.499l-0.25-0.25
				L70.388,45.338z M70.388,47.397l0.25,0.312l0.499-0.499l-0.25-0.249L70.388,47.397z M71.449,42.156l0.25,0.25l0.499-0.499
				l-0.25-0.25L71.449,42.156z M71.449,44.277l0.25,0.25l0.499-0.499l-0.25-0.25L71.449,44.277z M71.449,46.399l0.25,0.249
				l0.499-0.499l-0.25-0.25L71.449,46.399z M71.449,48.458l0.25,0.312l0.499-0.499l-0.25-0.312L71.449,48.458z M72.51,41.095
				l0.25,0.25l0.499-0.499l-0.25-0.25L72.51,41.095z M72.51,43.216l0.25,0.25l0.499-0.499l-0.25-0.25L72.51,43.216z M72.51,45.338
				l0.25,0.25l0.499-0.499l-0.25-0.25L72.51,45.338z M72.51,47.397l0.25,0.312l0.499-0.499l-0.25-0.249L72.51,47.397z M73.57,42.156
				l0.25,0.25l0.499-0.499l-0.312-0.25L73.57,42.156z M73.57,44.277l0.25,0.25l0.499-0.499l-0.312-0.25L73.57,44.277z M73.57,46.399
				l0.25,0.249l0.499-0.499l-0.312-0.25L73.57,46.399z M73.57,48.458l0.25,0.312l0.499-0.499l-0.312-0.312L73.57,48.458z
				 M74.569,41.095l0.312,0.25l0.499-0.499l-0.312-0.25L74.569,41.095z M74.569,43.216l0.312,0.25l0.499-0.499l-0.312-0.25
				L74.569,43.216z M74.569,45.338l0.312,0.25l0.499-0.499l-0.312-0.25L74.569,45.338z M74.569,47.397l0.312,0.312l0.499-0.499
				l-0.312-0.249L74.569,47.397z M77.564,49.207l8.674-8.611c0.208,0,0.426,0.021,0.655,0.062c0.228,0.042,0.446,0.084,0.655,0.125
				l-8.424,8.424H77.564z M79.686,49.207l8.299-8.299c0.208,0.084,0.406,0.146,0.593,0.187c0.187,0.042,0.384,0.104,0.593,0.187
				l-7.925,7.925H79.686z M81.807,49.207l7.8-7.738c0.166,0.084,0.332,0.167,0.499,0.25c0.166,0.084,0.353,0.167,0.562,0.25
				l-7.301,7.238H81.807z M83.929,49.207l7.051-7.051c0.208,0.084,0.384,0.177,0.531,0.281c0.145,0.104,0.301,0.198,0.468,0.281
				l-6.552,6.552c-0.167-0.041-0.396-0.063-0.686-0.063H83.929z M85.801,57.88l-0.312-0.25l-0.499,0.499l0.312,0.25L85.801,57.88z
				 M85.801,60.002l-0.312-0.25l-0.499,0.499l0.312,0.25L85.801,60.002z M85.801,62.124l-0.312-0.25l-0.499,0.499l0.312,0.25
				L85.801,62.124z M85.801,64.245l-0.312-0.25l-0.499,0.499l0.312,0.25L85.801,64.245z M86.924,49.893
				c-0.167-0.125-0.333-0.218-0.499-0.281c-0.167-0.062-0.354-0.135-0.562-0.218l6.427-6.427c0.125,0.125,0.259,0.24,0.406,0.343
				c0.145,0.104,0.301,0.219,0.468,0.343L86.924,49.893z M86.861,58.941l-0.312-0.25l-0.499,0.499l0.312,0.25L86.861,58.941z
				 M86.861,61.063l-0.312-0.25l-0.499,0.499l0.312,0.25L86.861,61.063z M86.861,63.184l-0.312-0.249l-0.499,0.499l0.312,0.25
				L86.861,63.184z M86.175,75.228c0.125-0.083,0.259-0.145,0.406-0.187c0.145-0.041,0.281-0.103,0.405-0.187l6.24,6.302
				c-0.25,0.167-0.458,0.334-0.624,0.499L86.175,75.228z M87.86,57.88l-0.25-0.25l-0.499,0.499l0.312,0.25L87.86,57.88z
				 M87.86,60.002l-0.25-0.25l-0.499,0.499l0.312,0.25L87.86,60.002z M87.86,62.124l-0.25-0.25l-0.499,0.499l0.312,0.25
				L87.86,62.124z M87.86,64.245l-0.25-0.25l-0.499,0.499l0.312,0.25L87.86,64.245z M87.985,50.954
				c-0.209-0.375-0.458-0.645-0.749-0.811l6.178-6.24c0.125,0.167,0.259,0.312,0.406,0.437c0.145,0.125,0.259,0.25,0.343,0.375
				L87.985,50.954z M87.548,74.479c0.166-0.083,0.375-0.25,0.624-0.499l6.177,6.178c-0.25,0.25-0.437,0.416-0.562,0.499
				L87.548,74.479z M88.609,52.452c-0.042-0.208-0.104-0.406-0.187-0.593c-0.084-0.187-0.167-0.384-0.25-0.593l6.302-6.24
				c0.083,0.125,0.187,0.26,0.312,0.406c0.125,0.146,0.228,0.302,0.312,0.468L88.609,52.452z M88.921,58.941l-0.25-0.25
				l-0.499,0.499l0.25,0.25L88.921,58.941z M88.921,61.063l-0.25-0.25l-0.499,0.499l0.25,0.25L88.921,61.063z M88.921,63.184
				l-0.25-0.249l-0.499,0.499l0.25,0.25L88.921,63.184z M88.671,52.888l6.677-6.677c0.083,0.167,0.176,0.333,0.281,0.499
				c0.103,0.167,0.197,0.333,0.281,0.499l-7.675,7.675c0.29-0.54,0.437-1.123,0.437-1.747V52.888z M88.609,73.418
				c0.125-0.125,0.27-0.353,0.437-0.686l6.302,6.302c-0.25,0.25-0.416,0.458-0.499,0.624L88.609,73.418z M89.482,70.111
				c-0.084-0.624-0.229-1.164-0.437-1.622l7.925,7.925l-0.374,0.749L89.482,70.111z M89.981,60.002l-0.25-0.25l-0.499,0.499
				l0.25,0.25L89.981,60.002z M89.981,62.124l-0.25-0.25l-0.499,0.499l0.25,0.25L89.981,62.124z M89.981,64.245l-0.25-0.25
				l-0.499,0.499l0.25,0.25L89.981,64.245z M89.545,71.109l6.677,6.677c-0.084,0.125-0.156,0.24-0.218,0.343
				c-0.063,0.104-0.136,0.219-0.219,0.343l-6.427-6.427L89.545,71.109z M90.293,59.191l0.25,0.25l0.499-0.499l-0.25-0.25
				L90.293,59.191z M90.293,61.312l0.25,0.25l0.499-0.499l-0.25-0.25L90.293,61.312z M90.543,63.684l0.499-0.499l-0.25-0.249
				l-0.499,0.499L90.543,63.684z M91.354,60.252l0.25,0.25l0.499-0.499l-0.249-0.25L91.354,60.252z M91.354,62.373l0.25,0.25
				l0.499-0.499l-0.249-0.25L91.354,62.373z M92.415,61.312l0.249,0.25l0.499-0.499l-0.25-0.25L92.415,61.312z"/>
		</g>
	</g>
</g>
<g id="logo-clean">
	<g>
		<g>
			<path stroke="#FFFFFF" stroke-miterlimit="10" d="M230.668,114.121c0,1.687-1.367,3.054-3.054,3.054H124.035
				c-1.687,0-3.054-1.367-3.054-3.054V10.542c0-1.687,1.367-3.054,3.054-3.054h103.579c1.687,0,3.054,1.367,3.054,3.054V114.121z"/>
		</g>
	</g>
	<path fill="#FFFFFF" d="M214.141,65.53c-0.663-1.594-1.599-2.993-2.798-4.194c0.911-1.121,1.624-2.363,2.145-3.731
		c0.516-1.369,0.774-2.818,0.774-4.351c0-1.74-0.329-3.377-0.992-4.913c-0.663-1.533-1.568-2.869-2.707-4.01
		c-1.138-1.138-2.474-2.182-4.007-2.845c-1.538-0.663-3.172-1.135-4.913-1.135H179.91h-0.025H166.73l-8.581,13.615l-8.581-13.615
		h-13.191v9h4v26h-4v9h17v-9h-4V56.798l8.503,13.739l8.497-13.739v18.554h-4v9h17.506h0.025h21.735c1.862,0,3.612-0.452,5.252-1.158
		c1.639-0.703,3.066-1.717,4.29-2.942c1.224-1.222,2.186-2.676,2.889-4.313c0.708-1.637,1.057-3.402,1.057-5.267
		C215.133,68.849,214.804,67.126,214.141,65.53z M193.378,49.351h8.266c1.078,0,1.998,0.376,2.767,1.143
		c0.764,0.766,1.148,1.686,1.148,2.763s-0.384,2.087-1.148,2.854c-0.769,0.769-1.69,1.24-2.767,1.24h-8.266V49.351z M184.378,75.351
		h-4.469h-0.025h-4.506v-26h4.506h0.025h4.469V75.351z M205.029,74c-0.931,0.933-2.059,1.351-3.385,1.351h-8.266v-9h8.266
		c1.326,0,2.454,0.227,3.385,1.16c0.936,0.931,1.401,1.919,1.401,3.244C206.431,72.084,205.965,73.069,205.029,74z"/>
</g>
</svg>
